TITLE ""
FILE "Disc5Track18.mp3" MP3
  TRACK 01 AUDIO
    TITLE "Disc5Track18_01"
    INDEX 01 00:00:00
  TRACK 02 AUDIO
    TITLE "Disc5Track18_02"
    INDEX 01 00:01:10
  TRACK 03 AUDIO
    TITLE "Disc5Track18_03"
    INDEX 01 00:02:05
  TRACK 04 AUDIO
    TITLE "Disc5Track18_04"
    INDEX 01 00:03:24
  TRACK 05 AUDIO
    TITLE "Disc5Track18_05"
    INDEX 01 00:03:65
  TRACK 06 AUDIO
    TITLE "Disc5Track18_06"
    INDEX 01 00:05:06
  TRACK 07 AUDIO
    TITLE "Disc5Track18_07"
    INDEX 01 00:06:03
  TRACK 08 AUDIO
    TITLE "Disc5Track18_08"
    INDEX 01 00:07:18
  TRACK 09 AUDIO
    TITLE "Disc5Track18_09"
    INDEX 01 00:07:61
  TRACK 10 AUDIO
    TITLE "Disc5Track18_10"
    INDEX 01 00:09:01
  TRACK 11 AUDIO
    TITLE "Disc5Track18_11"
    INDEX 01 00:10:05
  TRACK 12 AUDIO
    TITLE "Disc5Track18_12"
    INDEX 01 00:11:20
  TRACK 13 AUDIO
    TITLE "Disc5Track18_13"
    INDEX 01 00:11:57
  TRACK 14 AUDIO
    TITLE "Disc5Track18_14"
    INDEX 01 00:12:72
  TRACK 15 AUDIO
    TITLE "Disc5Track18_15"
    INDEX 01 00:13:58
  TRACK 16 AUDIO
    TITLE "Disc5Track18_16"
    INDEX 01 00:14:71
  TRACK 17 AUDIO
    TITLE "Disc5Track18_17"
    INDEX 01 00:15:35
  TRACK 18 AUDIO
    TITLE "Disc5Track18_18"
    INDEX 01 00:16:54
  TRACK 19 AUDIO
    TITLE "Disc5Track18_19"
    INDEX 01 00:17:60
  TRACK 20 AUDIO
    TITLE "Disc5Track18_20"
    INDEX 01 00:19:02
  TRACK 21 AUDIO
    TITLE "Disc5Track18_21"
    INDEX 01 00:22:39
  TRACK 22 AUDIO
    TITLE "Disc5Track18_22"
    INDEX 01 00:22:73
  TRACK 23 AUDIO
    TITLE "Disc5Track18_23"
    INDEX 01 00:24:13
  TRACK 24 AUDIO
    TITLE "Disc5Track18_24"
    INDEX 01 00:26:51
  TRACK 25 AUDIO
    TITLE "Disc5Track18_25"
    INDEX 01 00:27:62
  TRACK 26 AUDIO
    TITLE "Disc5Track18_26"
    INDEX 01 00:30:54
  TRACK 27 AUDIO
    TITLE "Disc5Track18_27"
    INDEX 01 00:31:09
  TRACK 28 AUDIO
    TITLE "Disc5Track18_28"
    INDEX 01 00:32:44
  TRACK 29 AUDIO
    TITLE "Disc5Track18_29"
    INDEX 01 00:37:09
  TRACK 30 AUDIO
    TITLE "Disc5Track18_30"
    INDEX 01 00:38:44
  TRACK 31 AUDIO
    TITLE "Disc5Track18_31"
    INDEX 01 00:42:30
  TRACK 32 AUDIO
    TITLE "Disc5Track18_32"
    INDEX 01 00:42:64
  TRACK 33 AUDIO
    TITLE "Disc5Track18_33"
    INDEX 01 00:44:02
  TRACK 34 AUDIO
    TITLE "Disc5Track18_34"
    INDEX 01 00:46:08
  TRACK 35 AUDIO
    TITLE "Disc5Track18_35"
    INDEX 01 00:47:20
  TRACK 36 AUDIO
    TITLE "Disc5Track18_36"
    INDEX 01 00:49:19
  TRACK 37 AUDIO
    TITLE "Disc5Track18_37"
    INDEX 01 00:49:50
  TRACK 38 AUDIO
    TITLE "Disc5Track18_38"
    INDEX 01 00:50:71
  TRACK 39 AUDIO
    TITLE "Disc5Track18_39"
    INDEX 01 00:53:59
  TRACK 40 AUDIO
    TITLE "Disc5Track18_40"
    INDEX 01 00:55:03
  TRACK 41 AUDIO
    TITLE "Disc5Track18_41"
    INDEX 01 00:58:72
